<svg width="286" height="122" viewBox="0 0 286 122" fill="none" xmlns="http://www.w3.org/2000/svg">
<ellipse cx="144" cy="112.5" rx="140" ry="9.5" fill="black" fill-opacity="0.72"/>
<path d="M43.0002 112.134C52.9414 112.134 61.0002 104.075 61.0002 94.1336C61.0002 84.1925 52.9414 76.1336 43.0002 76.1336C33.0591 76.1336 25.0002 84.1925 25.0002 94.1336C25.0002 104.075 33.0591 112.134 43.0002 112.134Z" stroke="black" stroke-width="6.4252" stroke-miterlimit="22.9256"/>
<path d="M55.0002 96.3155V92.4978L49.7826 91.9517C47.6959 91.5155 47.8698 89.5888 48.2175 88.6786L50.8261 84.3155L47.6956 82.1336L44.5654 87.0429C43.3132 88.3517 41.9567 87.5886 41.4348 87.0429L38.8261 82.1336L35.6956 84.3155L37.7826 88.6786C39.0348 90.8606 37.261 91.7699 36.2175 91.9517H31.0002V96.0899H35.6956C38.2002 96.0899 38.1307 98.4979 37.7826 99.5886L35.174 103.952L38.3046 106.134L41.4348 101.77C42.6869 99.5886 44.3915 100.861 45.0869 101.77L47.3879 106.006L50.8261 103.952L48.2175 99.5886C47.3826 97.4067 48.9133 96.4977 49.7826 96.3155H55.0002Z" fill="#292929"/>
<path d="M47.174 106.134L47.3879 106.006M47.3879 106.006L50.8261 103.952L48.2175 99.5886C47.3826 97.4067 48.9133 96.4977 49.7826 96.3155H55.0002V92.4978C55.0002 92.4978 53.9567 92.3886 49.7826 91.9517C47.6959 91.5155 47.8698 89.5888 48.2175 88.6786L50.8261 84.3155L47.6956 82.1336L44.5654 87.0429C43.3132 88.3517 41.9567 87.5886 41.4348 87.0429L38.8261 82.1336L35.6956 84.3155L37.7826 88.6786C39.0348 90.8606 37.261 91.7699 36.2175 91.9517H31.0002V96.0899C31.5218 96.0899 32.5653 96.0899 35.6956 96.0899C38.2002 96.0899 38.1307 98.4979 37.7826 99.5886L35.174 103.952L38.3046 106.134L41.4348 101.77C42.6869 99.5886 44.3915 100.861 45.0869 101.77L47.3879 106.006Z" stroke="black" stroke-width="0.399874" stroke-miterlimit="22.9256"/>
<path d="M48.0004 94.1336C48.0004 91.3723 45.7617 89.1337 43.0004 89.1337C40.2391 89.1337 38.0005 91.3723 38.0005 94.1336C38.0005 96.895 40.2391 99.1335 43.0004 99.1335C45.7617 99.1335 48.0004 96.895 48.0004 94.1336Z" fill="#D9D9D9" fill-opacity="0.541176"/>
<path d="M43.0001 97.1334C44.6568 97.1334 45.9999 95.7904 45.9999 94.1336C45.9999 92.4769 44.6568 91.1338 43.0001 91.1338C41.3433 91.1338 40.0002 92.4769 40.0002 94.1336C40.0002 95.7904 41.3433 97.1334 43.0001 97.1334Z" fill="#555555"/>
<path d="M43.0004 107.484C50.3735 107.484 56.3505 101.507 56.3505 94.1336C56.3505 86.7606 50.3735 80.7836 43.0004 80.7836C35.6274 80.7836 29.6504 86.7606 29.6504 94.1336C29.6504 101.507 35.6274 107.484 43.0004 107.484Z" stroke="#292929" stroke-width="3.29991" stroke-miterlimit="22.9256"/>
<path d="M36.0002 85.1338C36.5002 84.1338 32.4999 87.1336 31.5002 92.1339" stroke="black" stroke-width="0.399874" stroke-miterlimit="22.9256"/>
<path d="M39.2183 83.3114C40.3223 82.7373 43.437 81.9099 47.0744 83.3688" stroke="black" stroke-width="0.399874" stroke-miterlimit="22.9256"/>
<path d="M50.2856 85.2192C51.7143 86.0904 54.5591 89.2505 54.5002 92.6339" stroke="black" stroke-width="0.399874" stroke-miterlimit="22.9256"/>
<path d="M54.5003 96.1338C54.7066 98.1585 50.8697 103.235 50.2664 102.915C50.167 102.863 50.1466 102.706 50 102.634" stroke="black" stroke-width="0.399874" stroke-miterlimit="22.9256"/>
<path d="M39.0386 104.883C39.8977 105.538 44.2041 106.232 47.0179 104.959" stroke="black" stroke-width="0.399874" stroke-miterlimit="22.9256"/>
<path d="M35.7488 102.99C33.6735 102.679 30.8623 95.7928 31.6719 96.0899" stroke="black" stroke-width="0.399874" stroke-miterlimit="22.9256"/>
<path d="M232.79 112.13C242.731 112.13 250.79 104.071 250.79 94.1303C250.79 84.1892 242.731 76.1302 232.79 76.1302C222.849 76.1302 214.79 84.1892 214.79 94.1303C214.79 104.071 222.849 112.13 232.79 112.13Z" stroke="black" stroke-width="6.4252" stroke-miterlimit="22.9256"/>
<path d="M244.79 96.3122V92.4945L239.572 91.9483C237.486 91.5122 237.66 89.5854 238.007 88.6753L240.616 84.3122L237.485 82.1302L234.355 87.0395C233.103 88.3484 231.746 87.5853 231.225 87.0395L228.616 82.1302L225.485 84.3122L227.572 88.6753C228.825 90.8572 227.051 91.7666 226.007 91.9483H220.79V96.0866H225.485C227.99 96.0866 227.92 98.4945 227.572 99.5853L224.964 103.948L228.094 106.13L231.225 101.766C232.477 99.5852 234.181 100.857 234.877 101.766L237.178 106.003L240.616 103.948L238.007 99.5853C237.172 97.4034 238.703 96.4943 239.572 96.3122H244.79Z" fill="#292929"/>
<path d="M236.964 106.13L237.178 106.003M237.178 106.003L240.616 103.948L238.007 99.5853C237.172 97.4034 238.703 96.4943 239.572 96.3122H244.79V92.4945C244.79 92.4945 243.746 92.3853 239.572 91.9483C237.486 91.5122 237.66 89.5854 238.007 88.6753L240.616 84.3122L237.485 82.1302L234.355 87.0395C233.103 88.3484 231.746 87.5853 231.225 87.0395L228.616 82.1302L225.485 84.3122L227.572 88.6753C228.825 90.8572 227.051 91.7666 226.007 91.9483H220.79V96.0866C221.312 96.0866 222.355 96.0866 225.485 96.0866C227.99 96.0866 227.92 98.4945 227.572 99.5853L224.964 103.948L228.094 106.13L231.225 101.766C232.477 99.5852 234.181 100.857 234.877 101.766L237.178 106.003Z" stroke="black" stroke-width="0.399874" stroke-miterlimit="22.9256"/>
<path d="M237.79 94.1303C237.79 91.369 235.551 89.1303 232.79 89.1303C230.029 89.1303 227.79 91.369 227.79 94.1303C227.79 96.8916 230.029 99.1302 232.79 99.1302C235.551 99.1302 237.79 96.8916 237.79 94.1303Z" fill="#D9D9D9" fill-opacity="0.541176"/>
<path d="M232.79 97.1301C234.446 97.1301 235.789 95.787 235.789 94.1303C235.789 92.4735 234.446 91.1304 232.79 91.1304C231.133 91.1304 229.79 92.4735 229.79 94.1303C229.79 95.787 231.133 97.1301 232.79 97.1301Z" fill="#555555"/>
<path d="M232.79 107.48C240.163 107.48 246.14 101.503 246.14 94.1303C246.14 86.7573 240.163 80.7802 232.79 80.7802C225.417 80.7802 219.44 86.7573 219.44 94.1303C219.44 101.503 225.417 107.48 232.79 107.48Z" stroke="#292929" stroke-width="3.29991" stroke-miterlimit="22.9256"/>
<path d="M225.79 85.1304C226.29 84.1303 222.29 87.1302 221.29 92.1305" stroke="black" stroke-width="0.399874" stroke-miterlimit="22.9256"/>
<path d="M229.008 83.308C230.112 82.7338 233.227 81.9065 236.864 83.3654" stroke="black" stroke-width="0.399874" stroke-miterlimit="22.9256"/>
<path d="M240.075 85.2159C241.504 86.0871 244.349 89.2471 244.29 92.6305" stroke="black" stroke-width="0.399874" stroke-miterlimit="22.9256"/>
<path d="M244.29 96.1304C244.496 98.1551 240.659 103.231 240.056 102.912C239.957 102.859 239.936 102.703 239.79 102.63" stroke="black" stroke-width="0.399874" stroke-miterlimit="22.9256"/>
<path d="M228.828 104.88C229.687 105.535 233.994 106.228 236.808 104.956" stroke="black" stroke-width="0.399874" stroke-miterlimit="22.9256"/>
<path d="M225.539 102.987C223.463 102.676 220.652 95.7894 221.462 96.0865" stroke="black" stroke-width="0.399874" stroke-miterlimit="22.9256"/>
<path d="M5.50022 74.6339V106.634H18.5003V106.134V96.6338V93.1336L20 87.6336L23.0002 82.6337L26.5 78.6338L31.0003 75.6336L38 74.1339H44L51.0001 75.6336L56 78.6338L60.0002 82.1336L63.5001 86.6339L65.5002 91.6339L66.5003 97.6339L67.5004 108.134L207.5 109.134V104.134V98.634L209 92.634L212 85.6339L217 80.6339L221.5 77.1337L225.838 75.3256C226.935 74.8686 228.112 74.6339 229.3 74.6339H234L240.5 76.6337L247 80.6339L252.5 86.6339L256 91.6339L257 97.6339L257.5 102.634L257 109.634H258.5H274.5H278.5L280.5 108.134L283 106.134L282.5 101.634L281.5 99.1336L280 98.634L281.5 93.6336L284 87.6336V83.1337L281.5 82.6337V78.1338L283 77.1337L280 72.6338L271.5 68.6339L270 57.6336L267.5 53.6337L254 49.6339L218.5 45.6336L185.5 6.6338H183L17.5002 4.13363H8.50003L2 2.13391V4.13363L14 12.6338L8.50003 45.6336V72.6338L5.50022 74.6339Z" fill="#2C2E29" stroke="black" stroke-width="3.00019" stroke-miterlimit="22.9256"/>
<path d="M177 10.1336C180.333 10.3003 187.3 10.5339 188.5 10.1336L218.831 45.6706L216.199 45.7262L209.086 45.77H202.586L181 19.1338L177 12.6338V10.1336Z" fill="#D9D9D9" stroke="black" stroke-width="3.00019" stroke-miterlimit="22.9256"/>
<path d="M157.264 11.0925L115.5 10.1336V45.1335H123.551H137.137H155.252H172.863H194.5L191.984 41.7773L186.449 34.1064L179.404 24.5174L173.869 18.2845L166.322 13.0106L157.264 11.0925Z" fill="#D9D9D9" stroke="black" stroke-width="3.00019" stroke-miterlimit="22.9256"/>
<path d="M53.5002 9.13354H25.0003H24.0002L22.5002 15.1335L21.5001 22.1336L20 33.1335V39.1335V42.1338L22.5002 44.1339H52.0001L53.5002 9.13354Z" fill="#D9D9D9" stroke="black" stroke-width="3.00019" stroke-miterlimit="22.9256"/>
<path d="M115.5 45.1335L51.5 44.1195L53.0001 9.13354L115.5 10.148V11.162V45.1335Z" fill="#D9D9D9" stroke="black" stroke-width="3.00019" stroke-miterlimit="22.9256"/>
<path d="M258.369 64.1336H270L267.785 55.7019L252 51.1335V64.1336H258.369Z" fill="#D9D9D9" stroke="black" stroke-width="3.00019" stroke-miterlimit="22.9256"/>
<path d="M248.737 51.1335L255 52.5017V64.1336H248V51.1335H248.737Z" fill="#FAAE18" stroke="black" stroke-width="3.00019" stroke-miterlimit="22.9256"/>
<path d="M23.0001 72.1338L21.1334 48.1338H9.46678L9 48.7729V72.1338H23.0001Z" fill="#D71414"/>
<path d="M9 48.1338H9.46678M9.46678 48.1338H21.1334L23.0001 72.1338H9V48.7729L9.46678 48.1338Z" stroke="black" stroke-width="3.00019" stroke-miterlimit="22.9256"/>
<path d="M9 72.1338V64.1336H22.0345L23.0001 72.1338H22.5175H9Z" fill="#D9D9D9" stroke="black" stroke-width="3.00019" stroke-miterlimit="22.9256"/>
</svg>
