<svg width="282" height="134" viewBox="0 0 282 134" fill="none" xmlns="http://www.w3.org/2000/svg">
<ellipse cx="137.493" cy="125.298" rx="126.46" ry="8.5812" fill="black" fill-opacity="0.72"/>
<path d="M40.3896 123.04C51.6142 123.04 60.7135 113.941 60.7135 102.716C60.7135 91.4917 51.6142 82.3923 40.3896 82.3923C29.165 82.3923 20.0657 91.4917 20.0657 102.716C20.0657 113.941 29.165 123.04 40.3896 123.04Z" stroke="black" stroke-width="7.25473" stroke-miterlimit="22.9256"/>
<path d="M53.9389 105.18V100.869L48.0476 100.253C45.6915 99.7602 45.8878 97.5846 46.2804 96.557L49.2259 91.6306L45.6911 89.167L42.1568 94.71C40.743 96.1879 39.2114 95.3263 38.622 94.71L35.6766 89.167L32.1418 91.6306L34.4983 96.557C35.9122 99.0206 33.9094 100.047 32.7312 100.253H26.8403V104.925H32.1418C34.9699 104.925 34.8914 107.644 34.4983 108.876L31.5529 113.802L35.0877 116.266L38.622 111.338C40.0358 108.876 41.9605 110.312 42.7457 111.338L45.3437 116.121L49.2259 113.802L46.2804 108.876C45.3378 106.412 47.0661 105.386 48.0476 105.18H53.9389Z" fill="#292929"/>
<path d="M45.1022 116.266L45.3437 116.121M45.3437 116.121L49.2259 113.802L46.2804 108.876C45.3378 106.412 47.0661 105.386 48.0476 105.18H53.9389V100.869C53.9389 100.869 52.7606 100.746 48.0476 100.253C45.6915 99.7602 45.8878 97.5846 46.2804 96.557L49.2259 91.6306L45.6911 89.167L42.1568 94.71C40.743 96.1879 39.2114 95.3263 38.622 94.71L35.6766 89.167L32.1418 91.6306L34.4983 96.557C35.9122 99.0206 33.9094 100.047 32.7312 100.253H26.8403V104.925C27.4292 104.925 28.6075 104.925 32.1418 104.925C34.9699 104.925 34.8914 107.644 34.4983 108.876L31.5529 113.802L35.0877 116.266L38.622 111.338C40.0358 108.876 41.9605 110.312 42.7457 111.338L45.3437 116.121Z" stroke="black" stroke-width="0.4515" stroke-miterlimit="22.9256"/>
<path d="M46.0353 102.716C46.0353 99.5985 43.5077 97.0708 40.3898 97.0708C37.272 97.0708 34.7444 99.5985 34.7444 102.716C34.7444 105.834 37.272 108.362 40.3898 108.362C43.5077 108.362 46.0353 105.834 46.0353 102.716Z" fill="#D9D9D9" fill-opacity="0.541176"/>
<path d="M40.3893 106.103C42.26 106.103 43.7764 104.587 43.7764 102.716C43.7764 100.846 42.26 99.3291 40.3893 99.3291C38.5187 99.3291 37.0022 100.846 37.0022 102.716C37.0022 104.587 38.5187 106.103 40.3893 106.103Z" fill="#555555"/>
<path d="M40.3898 117.79C48.7147 117.79 55.4634 111.041 55.4634 102.716C55.4634 94.3914 48.7147 87.6426 40.3898 87.6426C32.0648 87.6426 25.3162 94.3914 25.3162 102.716C25.3162 111.041 32.0648 117.79 40.3898 117.79Z" stroke="#292929" stroke-width="3.72594" stroke-miterlimit="22.9256"/>
<path d="M32.4857 92.5545C33.0502 91.4254 28.5335 94.8125 27.4048 100.458" stroke="black" stroke-width="0.4515" stroke-miterlimit="22.9256"/>
<path d="M36.1194 90.4968C37.3659 89.8486 40.8827 88.9144 44.9898 90.5617" stroke="black" stroke-width="0.4515" stroke-miterlimit="22.9256"/>
<path d="M48.6155 92.651C50.2286 93.6346 53.4407 97.2027 53.3741 101.023" stroke="black" stroke-width="0.4515" stroke-miterlimit="22.9256"/>
<path d="M53.3745 104.975C53.6075 107.261 49.2752 112.992 48.5941 112.632C48.4818 112.572 48.4588 112.395 48.2932 112.314" stroke="black" stroke-width="0.4515" stroke-miterlimit="22.9256"/>
<path d="M35.9165 114.854C36.8865 115.593 41.7489 116.376 44.926 114.94" stroke="black" stroke-width="0.4515" stroke-miterlimit="22.9256"/>
<path d="M32.2021 112.716C29.8588 112.365 26.6846 104.59 27.5987 104.925" stroke="black" stroke-width="0.4515" stroke-miterlimit="22.9256"/>
<path d="M240.016 123.04C251.24 123.04 260.339 113.941 260.339 102.716C260.339 91.4917 251.24 82.3923 240.016 82.3923C228.791 82.3923 219.692 91.4917 219.692 102.716C219.692 113.941 228.791 123.04 240.016 123.04Z" stroke="black" stroke-width="7.25473" stroke-miterlimit="22.9256"/>
<path d="M253.565 105.18V100.869L247.674 100.253C245.318 99.7602 245.514 97.5846 245.906 96.557L248.852 91.6306L245.317 89.167L241.783 94.71C240.369 96.1879 238.837 95.3263 238.248 94.71L235.303 89.167L231.768 91.6306L234.124 96.557C235.538 99.0206 233.535 100.047 232.357 100.253H226.466V104.925H231.768C234.596 104.925 234.517 107.644 234.124 108.876L231.179 113.802L234.714 116.266L238.248 111.338C239.662 108.876 241.586 110.312 242.372 111.338L244.97 116.121L248.852 113.802L245.906 108.876C244.964 106.412 246.692 105.386 247.674 105.18H253.565Z" fill="#292929"/>
<path d="M244.728 116.266L244.97 116.121M244.97 116.121L248.852 113.802L245.906 108.876C244.964 106.412 246.692 105.386 247.674 105.18H253.565V100.869C253.565 100.869 252.387 100.746 247.674 100.253C245.318 99.7602 245.514 97.5846 245.906 96.557L248.852 91.6306L245.317 89.167L241.783 94.71C240.369 96.1879 238.837 95.3263 238.248 94.71L235.303 89.167L231.768 91.6306L234.124 96.557C235.538 99.0206 233.535 100.047 232.357 100.253H226.466V104.925C227.055 104.925 228.233 104.925 231.768 104.925C234.596 104.925 234.517 107.644 234.124 108.876L231.179 113.802L234.714 116.266L238.248 111.338C239.662 108.876 241.586 110.312 242.372 111.338L244.97 116.121Z" stroke="black" stroke-width="0.4515" stroke-miterlimit="22.9256"/>
<path d="M245.661 102.716C245.661 99.5985 243.133 97.0708 240.016 97.0708C236.898 97.0708 234.37 99.5985 234.37 102.716C234.37 105.834 236.898 108.362 240.016 108.362C243.133 108.362 245.661 105.834 245.661 102.716Z" fill="#D9D9D9" fill-opacity="0.541176"/>
<path d="M240.015 106.103C241.886 106.103 243.402 104.587 243.402 102.716C243.402 100.846 241.886 99.3291 240.015 99.3291C238.145 99.3291 236.628 100.846 236.628 102.716C236.628 104.587 238.145 106.103 240.015 106.103Z" fill="#555555"/>
<path d="M240.016 117.79C248.341 117.79 255.089 111.041 255.089 102.716C255.089 94.3914 248.341 87.6426 240.016 87.6426C231.691 87.6426 224.942 94.3914 224.942 102.716C224.942 111.041 231.691 117.79 240.016 117.79Z" stroke="#292929" stroke-width="3.72594" stroke-miterlimit="22.9256"/>
<path d="M232.112 92.5545C232.676 91.4254 228.16 94.8125 227.031 100.458" stroke="black" stroke-width="0.4515" stroke-miterlimit="22.9256"/>
<path d="M235.745 90.4968C236.992 89.8486 240.508 88.9144 244.616 90.5617" stroke="black" stroke-width="0.4515" stroke-miterlimit="22.9256"/>
<path d="M248.241 92.651C249.855 93.6346 253.067 97.2027 253 101.023" stroke="black" stroke-width="0.4515" stroke-miterlimit="22.9256"/>
<path d="M253 104.975C253.233 107.261 248.901 112.992 248.22 112.632C248.108 112.572 248.085 112.395 247.919 112.314" stroke="black" stroke-width="0.4515" stroke-miterlimit="22.9256"/>
<path d="M235.542 114.854C236.512 115.593 241.375 116.376 244.552 114.94" stroke="black" stroke-width="0.4515" stroke-miterlimit="22.9256"/>
<path d="M231.828 112.716C229.485 112.365 226.311 104.59 227.225 104.925" stroke="black" stroke-width="0.4515" stroke-miterlimit="22.9256"/>
<path d="M2 103.168L4.70985 109.943L6.51642 110.846H9.22628H13.2911C13.6524 84.4699 31.2062 79.0803 39.938 79.6825C64.5073 82.9343 67.3376 106.329 65.6816 117.62H213.369C211.863 105.727 214.904 81.4891 239.112 79.6825C263.32 77.8759 268.168 102.114 267.566 114.459H270.727L275.695 113.104L279.76 109.943L280.212 104.523L279.76 100.458V95.9416L278.405 90.5219L276.599 85.5538L275.695 81.0374L273.889 74.7144L272.082 68.3914L268.921 57.552L266.662 53.0356L264.404 50.3257L258.081 46.7126L247.693 43.5511L232.338 39.938L226.918 39.0347L218.337 37.6797L213.369 36.7765L188.528 12.3878L184.012 8.77463L169.108 4.25821L156.913 2.90328L140.203 2H66.1332L53.0356 2.45164L43.0995 2.90328L30.9051 3.80657L24.5821 4.70985L20.969 5.61314L18.7108 6.96807V8.77463L19.6141 10.1296L27.7436 12.8394L24.1305 18.2591L20.5173 25.937L14.646 41.2929L12.3878 50.7774L10.5812 58.9069L9.22628 69.2947L5.61314 79.6825L2.90328 85.1022L2 95.0383V103.168Z" fill="#2C2E29" stroke="black" stroke-width="2.70985"/>
<path d="M24.1304 68.8431C19.4634 68.9936 9.9488 69.2947 9.22618 69.2947L5.61304 79.6825L8.32289 81.0374H12.3877L22.3238 72.0046L24.1304 70.198V68.8431Z" fill="#D71414" stroke="black" stroke-width="1.80657"/>
<path d="M258.984 58.0036H269.372L271.63 66.5849L270.727 67.4881L267.114 68.8431L258.984 60.7135V58.0036Z" fill="#D9D9D9" stroke="black" stroke-width="1.80657"/>
<path d="M119.427 11.0328H56.6486L53.4871 12.8394L49.4224 40.3896L123.04 45.8093L119.427 11.0328Z" fill="#D9D9D9" stroke="black" stroke-width="1.80657"/>
<path d="M202.078 49.8741L123.04 45.8093L119.427 11.0328H142.912L164.591 12.8394L173.172 15.0976L181.302 17.8075L188.077 23.6788L195.303 30.9051L202.078 38.583L206.594 44.906L207.497 49.8741H202.078Z" fill="#D9D9D9" stroke="black" stroke-width="1.80657"/>
<path d="M181.754 12.8394L185.818 10.5812L211.562 35.4215L214.272 38.583L219.24 44.4544L218.337 46.7126L213.369 47.6159L198.916 30.0018L188.98 20.5173L181.754 15.0976V12.8394Z" fill="#D9D9D9" stroke="black" stroke-width="1.80657"/>
</svg>
