<svg width="263" height="122" viewBox="0 0 263 122" fill="none" xmlns="http://www.w3.org/2000/svg">
<path d="M35.7765 110.474C47.0011 110.474 56.1004 101.375 56.1004 90.1505C56.1004 78.926 47.0011 69.8266 35.7765 69.8266C24.552 69.8266 15.4526 78.926 15.4526 90.1505C15.4526 101.375 24.552 110.474 35.7765 110.474Z" stroke="black" stroke-width="7.25473" stroke-miterlimit="22.9256"/>
<path d="M49.3258 92.6141V88.3035L43.4346 87.6869C41.0785 87.1945 41.2748 85.0189 41.6674 83.9913L44.6128 79.0649L41.0781 76.6013L37.5437 82.1443C36.1299 83.6222 34.5983 82.7605 34.009 82.1443L31.0636 76.6013L27.5288 79.0649L29.8853 83.9913C31.2991 86.4549 29.2964 87.4817 28.1181 87.6869H22.2273V92.3594H27.5288C30.3569 92.3594 30.2783 95.0782 29.8853 96.3098L26.9399 101.236L30.4747 103.7L34.009 98.7726C35.4228 96.3098 37.3474 97.7462 38.1326 98.7726L40.7307 103.556L44.6128 101.236L41.6674 96.3098C40.7247 93.8462 42.4531 92.8198 43.4346 92.6141H49.3258Z" fill="#292929"/>
<path d="M40.4892 103.7L40.7307 103.556M40.7307 103.556L44.6128 101.236L41.6674 96.3098C40.7247 93.8462 42.4531 92.8198 43.4346 92.6141H49.3258V88.3035C49.3258 88.3035 48.1476 88.1803 43.4346 87.6869C41.0785 87.1945 41.2748 85.0189 41.6674 83.9913L44.6128 79.0649L41.0781 76.6013L37.5437 82.1443C36.1299 83.6222 34.5983 82.7605 34.009 82.1443L31.0636 76.6013L27.5288 79.0649L29.8853 83.9913C31.2991 86.4549 29.2964 87.4817 28.1181 87.6869H22.2273V92.3594C22.8162 92.3594 23.9945 92.3594 27.5288 92.3594C30.3569 92.3594 30.2783 95.0782 29.8853 96.3098L26.9399 101.236L30.4747 103.7L34.009 98.7726C35.4228 96.3098 37.3474 97.7462 38.1326 98.7726L40.7307 103.556Z" stroke="black" stroke-width="0.4515" stroke-miterlimit="22.9256"/>
<path d="M41.422 90.1506C41.422 87.0327 38.8944 84.5051 35.7766 84.5051C32.6587 84.5051 30.1311 87.0327 30.1311 90.1506C30.1311 93.2684 32.6587 95.796 35.7766 95.796C38.8944 95.796 41.422 93.2684 41.422 90.1506Z" fill="#D9D9D9" fill-opacity="0.541176"/>
<path d="M35.7763 93.5376C37.6469 93.5376 39.1634 92.0212 39.1634 90.1506C39.1634 88.2799 37.6469 86.7634 35.7763 86.7634C33.9056 86.7634 32.3892 88.2799 32.3892 90.1506C32.3892 92.0212 33.9056 93.5376 35.7763 93.5376Z" fill="#555555"/>
<path d="M35.7767 105.224C44.1017 105.224 50.8503 98.4755 50.8503 90.1505C50.8503 81.8256 44.1017 75.0769 35.7767 75.0769C27.4518 75.0769 20.7031 81.8256 20.7031 90.1505C20.7031 98.4755 27.4518 105.224 35.7767 105.224Z" stroke="#292929" stroke-width="3.72594" stroke-miterlimit="22.9256"/>
<path d="M27.8726 79.9888C28.4372 78.8597 23.9205 82.2468 22.7917 87.8926" stroke="black" stroke-width="0.4515" stroke-miterlimit="22.9256"/>
<path d="M31.5061 77.9311C32.7526 77.2829 36.2695 76.3488 40.3765 77.996" stroke="black" stroke-width="0.4515" stroke-miterlimit="22.9256"/>
<path d="M44.0024 80.0853C45.6156 81.0689 48.8277 84.637 48.7611 88.4573" stroke="black" stroke-width="0.4515" stroke-miterlimit="22.9256"/>
<path d="M48.7612 92.4089C48.9942 94.695 44.6619 100.427 43.9808 100.066C43.8685 100.007 43.8455 99.8297 43.6799 99.7482" stroke="black" stroke-width="0.4515" stroke-miterlimit="22.9256"/>
<path d="M31.3032 102.288C32.2732 103.028 37.1356 103.81 40.3127 102.374" stroke="black" stroke-width="0.4515" stroke-miterlimit="22.9256"/>
<path d="M27.589 100.151C25.2457 99.7994 22.0716 92.024 22.9857 92.3594" stroke="black" stroke-width="0.4515" stroke-miterlimit="22.9256"/>
<path d="M220.047 113.184C231.271 113.184 240.37 104.085 240.37 92.8604C240.37 81.6359 231.271 72.5365 220.047 72.5365C208.822 72.5365 199.723 81.6359 199.723 92.8604C199.723 104.085 208.822 113.184 220.047 113.184Z" stroke="black" stroke-width="7.25473" stroke-miterlimit="22.9256"/>
<path d="M233.596 95.324V91.0134L227.705 90.3968C225.349 89.9043 225.545 87.7288 225.937 86.7011L228.883 81.7747L225.348 79.3111L221.814 84.8542C220.4 86.332 218.868 85.4704 218.279 84.8542L215.334 79.3111L211.799 81.7747L214.155 86.7011C215.569 89.1648 213.566 90.1915 212.388 90.3968H206.497V95.0692H211.799C214.627 95.0692 214.548 97.7881 214.155 99.0197L211.21 103.946L214.745 106.41L218.279 101.482C219.693 99.0196 221.617 100.456 222.403 101.482L225.001 106.265L228.883 103.946L225.937 99.0197C224.995 96.5561 226.723 95.5297 227.705 95.324H233.596Z" fill="#292929"/>
<path d="M224.759 106.41L225.001 106.265M225.001 106.265L228.883 103.946L225.937 99.0197C224.995 96.5561 226.723 95.5297 227.705 95.324H233.596V91.0134C233.596 91.0134 232.418 90.8901 227.705 90.3968C225.349 89.9043 225.545 87.7288 225.937 86.7011L228.883 81.7747L225.348 79.3111L221.814 84.8542C220.4 86.332 218.868 85.4704 218.279 84.8542L215.334 79.3111L211.799 81.7747L214.155 86.7011C215.569 89.1648 213.566 90.1915 212.388 90.3968H206.497V95.0692C207.086 95.0692 208.264 95.0692 211.799 95.0692C214.627 95.0692 214.548 97.7881 214.155 99.0197L211.21 103.946L214.745 106.41L218.279 101.482C219.693 99.0196 221.617 100.456 222.403 101.482L225.001 106.265Z" stroke="black" stroke-width="0.4515" stroke-miterlimit="22.9256"/>
<path d="M225.692 92.8604C225.692 89.7426 223.164 87.2149 220.047 87.2149C216.929 87.2149 214.401 89.7426 214.401 92.8604C214.401 95.9782 216.929 98.5058 220.047 98.5058C223.164 98.5058 225.692 95.9782 225.692 92.8604Z" fill="#D9D9D9" fill-opacity="0.541176"/>
<path d="M220.046 96.2475C221.917 96.2475 223.433 94.7311 223.433 92.8604C223.433 90.9898 221.917 89.4733 220.046 89.4733C218.176 89.4733 216.659 90.9898 216.659 92.8604C216.659 94.7311 218.176 96.2475 220.046 96.2475Z" fill="#555555"/>
<path d="M220.047 107.934C228.372 107.934 235.12 101.185 235.12 92.8604C235.12 84.5355 228.372 77.7867 220.047 77.7867C211.722 77.7867 204.973 84.5355 204.973 92.8604C204.973 101.185 211.722 107.934 220.047 107.934Z" stroke="#292929" stroke-width="3.72594" stroke-miterlimit="22.9256"/>
<path d="M212.143 82.6987C212.707 81.5695 208.191 84.9566 207.062 90.6025" stroke="black" stroke-width="0.4515" stroke-miterlimit="22.9256"/>
<path d="M215.776 80.641C217.023 79.9927 220.539 79.0586 224.647 80.7058" stroke="black" stroke-width="0.4515" stroke-miterlimit="22.9256"/>
<path d="M228.272 82.7951C229.886 83.7788 233.098 87.3468 233.031 91.1671" stroke="black" stroke-width="0.4515" stroke-miterlimit="22.9256"/>
<path d="M233.031 95.1188C233.264 97.4049 228.932 103.137 228.251 102.776C228.139 102.717 228.116 102.54 227.95 102.458" stroke="black" stroke-width="0.4515" stroke-miterlimit="22.9256"/>
<path d="M215.573 104.998C216.543 105.738 221.406 106.52 224.583 105.084" stroke="black" stroke-width="0.4515" stroke-miterlimit="22.9256"/>
<path d="M211.859 102.86C209.516 102.509 206.342 94.7338 207.256 95.0693" stroke="black" stroke-width="0.4515" stroke-miterlimit="22.9256"/>
<path d="M1.45166 81.5693V94.002C1.45166 94.3985 1.71029 94.7465 2.0893 94.8631L7.19319 96.4336C7.27925 96.46 7.36879 96.4735 7.45884 96.4735H11.7154C12.2602 96.4735 12.6803 95.9973 12.6322 95.4546C11.7802 85.8551 15.4155 68.5747 36.6798 68.9233C58.0531 69.2737 61.0499 90.0394 59.8387 101.318C59.7803 101.862 60.2014 102.345 60.749 102.345H193.77C194.299 102.345 194.715 101.895 194.686 101.366C194.003 89.0062 199.804 68.0437 219.595 68.9233C241.306 69.8883 245.501 90.1191 244.966 100.34C244.936 100.912 245.419 101.382 245.988 101.319L256.507 100.15C256.857 100.112 257.153 99.8726 257.264 99.5384L258.39 96.1609C258.421 96.0688 258.466 95.9823 258.524 95.9046L259.645 94.41C259.741 94.2825 259.801 94.1319 259.82 93.9736L260.694 86.5374V77.8787C260.694 77.6391 260.599 77.4094 260.43 77.24L257.818 74.6278C257.429 74.2392 257.475 73.5963 257.914 73.2665L258.526 72.8074C258.754 72.6369 258.888 72.3691 258.888 72.0848V69.3575C258.888 69.0831 258.763 68.8235 258.549 68.6521L257.54 67.8451C257.079 67.4763 257.09 66.7715 257.562 66.4172L257.868 66.1878C258.202 65.9378 258.321 65.4923 258.156 65.1093L257.081 62.6003L254.846 54.5549C254.831 54.4989 254.81 54.4446 254.784 54.3927L252.263 49.3517C252.167 49.1578 252.003 49.0052 251.803 48.9218L246.766 46.8231C246.718 46.803 246.668 46.7871 246.617 46.7756L228.628 42.7281L219.595 41.3731L205.945 40.4925C205.719 40.478 205.507 40.379 205.351 40.2153L176.373 9.8999C176.283 9.80651 176.175 9.73335 176.055 9.68537L169.555 7.08515C169.493 7.06068 169.43 7.04297 169.365 7.03235L147.332 3.43519L110.297 2.08026H76.4243H52.0356H36.6798L23.9439 3.35385C23.4821 3.40002 23.1305 3.78859 23.1305 4.25265V8.20014C23.1305 8.33388 23.1008 8.46595 23.0435 8.58682L10.9872 34.0391C10.9533 34.1106 10.929 34.1863 10.9148 34.2642L6.46055 58.7627C6.43375 58.91 6.37074 59.0484 6.27718 59.1654L4.76504 61.0556C4.66555 61.1799 4.60071 61.3284 4.57709 61.4858L3.28332 70.111C3.26674 70.2215 3.22977 70.3281 3.1743 70.4251L1.57067 73.2315C1.49268 73.368 1.45166 73.5219 1.45166 73.6791V81.5693Z" fill="#2C2E29" stroke="black" stroke-width="2.70985"/>
<path d="M14.0682 58.6688L6.1251 59.8036C5.75787 59.856 5.46004 60.1277 5.37412 60.4886L3.52318 68.2625C3.38804 68.8301 3.81844 69.375 4.4019 69.375H10.5621C10.8016 69.375 11.0314 69.2798 11.2008 69.1104L13.1944 67.1168L14.8076 65.5036C14.9337 65.3775 15.0197 65.2169 15.0546 65.042L15.4261 63.1845C15.4437 63.0967 15.4481 63.0067 15.4392 62.9175L15.0948 59.4732C15.0436 58.9619 14.5769 58.5962 14.0682 58.6688Z" fill="#D71414" stroke="black" stroke-width="1.80657"/>
<path d="M21.2184 57.7509L15.5424 58.4187C15.011 58.4812 14.6501 58.9894 14.7662 59.5118L15.4112 62.4142C15.4385 62.5369 15.4398 62.664 15.4152 62.7873L15.0158 64.7839C15.006 64.8329 14.9846 64.8789 14.9534 64.918C14.7201 65.2095 15.1016 65.591 15.3931 65.3577L21.8882 60.1617C22.1024 59.9903 22.2272 59.7307 22.2272 59.4563V58.648C22.2272 58.1073 21.7554 57.6878 21.2184 57.7509Z" fill="#D9D9D9" stroke="black" stroke-width="1.80657"/>
<path d="M243.181 50.8808L254.284 53.4431C254.615 53.5195 254.875 53.7748 254.957 54.1042L256.781 61.4002C256.93 61.9938 256.457 62.5601 255.847 62.5207L243.42 61.719C243.201 61.7049 242.995 61.6115 242.84 61.4563L239.919 58.5356L236.874 54.6213C236.797 54.5221 236.742 54.4078 236.711 54.2858L236.135 51.98C235.992 51.4099 236.423 50.8577 237.011 50.8577H237.661H242.977C243.046 50.8577 243.114 50.8654 243.181 50.8808Z" fill="#D9D9D9" stroke="black" stroke-width="1.80657"/>
<path d="M251.445 65.5477C253.205 65.8034 255.407 66.1014 256.559 66.1884C256.882 66.2129 257.181 66.3872 257.341 66.6686L258.769 69.1667C258.847 69.3032 258.888 69.4576 258.888 69.6148V72.1623C258.888 72.4019 258.793 72.6316 258.623 72.801L257.346 74.0785C257.176 74.2479 256.947 74.343 256.707 74.343H256.1C255.861 74.343 255.631 74.2479 255.462 74.0785L252.24 70.8562C252.156 70.7728 252.09 70.6739 252.044 70.5649L250.474 66.795C250.203 66.1442 250.748 65.4463 251.445 65.5477Z" fill="#D9D9D9" stroke="black" stroke-width="1.80657"/>
<path d="M171.321 9.75818H175.4C175.646 9.75818 175.882 9.85894 176.052 10.0371L204.133 39.3938C204.682 39.9684 204.275 40.9215 203.48 40.9215H198.4C198.098 40.9215 197.815 40.7706 197.648 40.5193L197.013 39.5666L183.915 24.6624L174.882 15.1779L170.709 11.3252C170.104 10.7675 170.499 9.75818 171.321 9.75818Z" fill="#D9D9D9" stroke="black" stroke-width="1.80657"/>
<path d="M110.385 7.03595L51.584 6.14502H50.7297C50.4182 6.14502 50.1288 6.30546 49.9637 6.56956L48.0764 9.58918C48.0069 9.70049 47.9624 9.82563 47.9461 9.95588L46.6159 20.5976L44.962 30.9344C44.8794 31.4507 45.251 31.929 45.7716 31.9767L112.835 38.1132C113.395 38.1645 113.866 37.6962 113.817 37.1354L111.271 7.86088C111.231 7.39932 110.848 7.04297 110.385 7.03595Z" fill="#D9D9D9" stroke="black" stroke-width="1.80657"/>
<path d="M145.9 7.94961L112.197 7.07422C111.663 7.06036 111.234 7.50997 111.273 8.04248L113.402 37.4255C113.435 37.8759 113.795 38.233 114.246 38.2617L190.796 43.1291C191.228 43.1565 191.593 42.8139 191.593 42.3814C191.593 42.3118 191.583 42.2425 191.564 42.1755L190.725 39.2375C190.702 39.1562 190.667 39.0786 190.622 39.0069L186.209 31.9462C186.185 31.9079 186.159 31.8714 186.129 31.8371L180.754 25.5657C178.796 23.458 174.792 19.1524 174.431 18.791C174.074 18.4346 170.465 15.7042 168.633 14.3299C168.583 14.2925 168.531 14.2613 168.474 14.235L161.883 11.159C161.818 11.1285 161.749 11.106 161.678 11.0918L146.053 7.96685C146.003 7.95672 145.951 7.95095 145.9 7.94961Z" fill="#D9D9D9" stroke="black" stroke-width="1.80657"/>
<path d="M26.3865 8.40326H24.1487C23.8022 8.40326 23.4862 8.60148 23.3354 8.91346L11.111 34.2054C10.821 34.8052 11.258 35.5018 11.9242 35.5018H12.6161C12.7 35.5018 12.7835 35.4901 12.8642 35.467L18.6104 33.8253C18.8955 33.7438 19.1224 33.5277 19.2177 33.247L27.2418 9.59677C27.4406 9.01099 27.005 8.40326 26.3865 8.40326Z" fill="#D9D9D9" stroke="black" stroke-width="1.80657"/>
<ellipse cx="127.46" cy="112.733" rx="126.46" ry="8.5812" fill="black" fill-opacity="0.72"/>
</svg>
