<svg width="764" height="489" viewBox="0 0 764 489" fill="none" xmlns="http://www.w3.org/2000/svg">
<ellipse cx="384.81" cy="463.016" rx="374.461" ry="25.4098" fill="black" fill-opacity="0.72"/>
<path d="M114.665 462.036C141.254 462.036 162.809 440.48 162.809 413.891C162.809 387.301 141.254 365.745 114.665 365.745C88.0748 365.745 66.5195 387.301 66.5195 413.891C66.5195 440.48 88.0748 462.036 114.665 462.036Z" stroke="black" stroke-width="17.1856" stroke-miterlimit="22.9256"/>
<path d="M146.761 419.727V409.515L132.805 408.055C127.224 406.888 127.689 401.734 128.619 399.3L135.597 387.63L127.223 381.794L118.851 394.925C115.502 398.426 111.873 396.385 110.477 394.925L103.5 381.794L95.1265 387.63L100.709 399.3C104.058 405.136 99.3137 407.568 96.5226 408.055H82.5679V419.123H95.1265C101.826 419.123 101.64 425.564 100.709 428.481L93.7315 440.151L102.105 445.987L110.477 434.315C113.826 428.481 118.386 431.884 120.246 434.315L126.4 445.646L135.597 440.151L128.619 428.481C126.386 422.645 130.48 420.214 132.805 419.727H146.761Z" fill="#292929"/>
<path d="M125.828 445.987L126.4 445.646M126.4 445.646L135.597 440.151L128.619 428.481C126.386 422.645 130.48 420.214 132.805 419.727H146.761V409.515C146.761 409.515 143.97 409.223 132.805 408.055C127.224 406.888 127.689 401.734 128.619 399.3L135.597 387.63L127.223 381.794L118.851 394.925C115.502 398.426 111.873 396.385 110.477 394.925L103.5 381.794L95.1265 387.63L100.709 399.3C104.058 405.136 99.3137 407.568 96.5226 408.055H82.5679V419.123C83.9629 419.123 86.7541 419.123 95.1265 419.123C101.826 419.123 101.64 425.564 100.709 428.481L93.7315 440.151L102.105 445.987L110.477 434.315C113.826 428.481 118.386 431.884 120.246 434.315L126.4 445.646Z" stroke="black" stroke-width="1.06955" stroke-miterlimit="22.9256"/>
<path d="M128.038 413.891C128.038 406.505 122.05 400.518 114.664 400.518C107.279 400.518 101.291 406.505 101.291 413.891C101.291 421.277 107.279 427.264 114.664 427.264C122.05 427.264 128.038 421.277 128.038 413.891Z" fill="#D9D9D9" fill-opacity="0.541176"/>
<path d="M114.663 421.914C119.095 421.914 122.687 418.322 122.687 413.891C122.687 409.459 119.095 405.867 114.663 405.867C110.232 405.867 106.64 409.459 106.64 413.891C106.64 418.322 110.232 421.914 114.663 421.914Z" fill="#555555"/>
<path d="M114.664 449.599C134.385 449.599 150.372 433.612 150.372 413.891C150.372 394.17 134.385 378.183 114.664 378.183C94.9436 378.183 78.9568 394.17 78.9568 413.891C78.9568 433.612 94.9436 449.599 114.664 449.599Z" stroke="#292929" stroke-width="8.82633" stroke-miterlimit="22.9256"/>
<path d="M95.9413 389.819C97.2787 387.144 86.5792 395.167 83.9053 408.542" stroke="black" stroke-width="1.06955" stroke-miterlimit="22.9256"/>
<path d="M104.548 384.944C107.501 383.409 115.832 381.196 125.561 385.098" stroke="black" stroke-width="1.06955" stroke-miterlimit="22.9256"/>
<path d="M134.151 390.047C137.972 392.377 145.581 400.83 145.424 409.88" stroke="black" stroke-width="1.06955" stroke-miterlimit="22.9256"/>
<path d="M145.424 419.241C145.976 424.656 135.713 438.234 134.099 437.379C133.834 437.239 133.779 436.82 133.387 436.626" stroke="black" stroke-width="1.06955" stroke-miterlimit="22.9256"/>
<path d="M104.068 442.642C106.366 444.395 117.884 446.249 125.41 442.847" stroke="black" stroke-width="1.06955" stroke-miterlimit="22.9256"/>
<path d="M95.269 437.58C89.7181 436.748 82.1988 418.329 84.3642 419.123" stroke="black" stroke-width="1.06955" stroke-miterlimit="22.9256"/>
<path d="M170.965 92.2411V187.096L340.809 189.77V143.061V93.5786C327.97 89.2994 336.351 84.6633 342.146 82.8801C342.146 -9.49664 150.034 2.53936 169.627 82.8801L177.652 88.2289C183.001 91.4385 175.423 92.2411 170.965 92.2411Z" fill="#D3A267" stroke="#B8711E" stroke-width="8.02467" stroke-miterlimit="22.9256"/>
<g filter="url(#filter0_d_233_107)">
<path d="M138.802 92.2408V187.095L308.648 189.77V143.061V93.5783C295.81 89.2991 304.189 84.663 309.986 82.8797C311.174 -9.74969 136.94 -4.37364 138.854 79.5063L147.275 84.6569C152.623 87.8666 143.26 92.2408 138.802 92.2408Z" fill="#D3A267"/>
<path d="M138.802 92.2408V187.095L308.648 189.77V143.061V93.5783C295.81 89.2991 304.189 84.663 309.986 82.8797C311.174 -9.74969 136.94 -4.37364 138.854 79.5063L147.275 84.6569C152.623 87.8666 143.26 92.2408 138.802 92.2408Z" stroke="#B8711E" stroke-width="8.02467" stroke-miterlimit="22.9256"/>
</g>
<path d="M622.299 462.027C648.889 462.027 670.444 440.472 670.444 413.882C670.444 387.292 648.889 365.737 622.299 365.737C595.709 365.737 574.154 387.292 574.154 413.882C574.154 440.472 595.709 462.027 622.299 462.027Z" stroke="black" stroke-width="17.1856" stroke-miterlimit="22.9256"/>
<path d="M654.396 419.718V409.507L640.44 408.046C634.859 406.879 635.324 401.726 636.254 399.292L643.231 387.621L634.858 381.785L626.485 394.916C623.136 398.417 619.508 396.376 618.112 394.916L611.134 381.785L602.761 387.621L608.343 399.292C611.692 405.128 606.948 407.56 604.157 408.046H590.202V419.115H602.761C609.46 419.115 609.274 425.555 608.343 428.473L601.366 440.143L609.739 445.979L618.112 434.307C621.461 428.473 626.02 431.875 627.88 434.307L634.035 445.637L643.231 440.143L636.254 428.473C634.021 422.637 638.115 420.205 640.44 419.718H654.396Z" fill="#292929"/>
<path d="M633.463 445.979L634.035 445.637M634.035 445.637L643.231 440.143L636.254 428.473C634.021 422.637 638.115 420.205 640.44 419.718H654.396V409.507C654.396 409.507 651.604 409.215 640.44 408.046C634.859 406.879 635.324 401.726 636.254 399.292L643.231 387.621L634.858 381.785L626.485 394.916C623.136 398.417 619.508 396.376 618.112 394.916L611.134 381.785L602.761 387.621L608.343 399.292C611.692 405.128 606.948 407.56 604.157 408.046H590.202V419.115C591.597 419.115 594.389 419.115 602.761 419.115C609.46 419.115 609.274 425.555 608.343 428.473L601.366 440.143L609.739 445.979L618.112 434.307C621.461 428.473 626.02 431.875 627.88 434.307L634.035 445.637Z" stroke="black" stroke-width="1.06955" stroke-miterlimit="22.9256"/>
<path d="M635.673 413.882C635.673 406.496 629.685 400.509 622.299 400.509C614.913 400.509 608.926 406.496 608.926 413.882C608.926 421.268 614.913 427.255 622.299 427.255C629.685 427.255 635.673 421.268 635.673 413.882Z" fill="#D9D9D9" fill-opacity="0.541176"/>
<path d="M622.298 421.905C626.729 421.905 630.322 418.313 630.322 413.882C630.322 409.45 626.729 405.858 622.298 405.858C617.866 405.858 614.274 409.45 614.274 413.882C614.274 418.313 617.866 421.905 622.298 421.905Z" fill="#555555"/>
<path d="M622.299 449.59C642.02 449.59 658.007 433.603 658.007 413.882C658.007 394.161 642.02 378.174 622.299 378.174C602.578 378.174 586.591 394.161 586.591 413.882C586.591 433.603 602.578 449.59 622.299 449.59Z" stroke="#292929" stroke-width="8.82633" stroke-miterlimit="22.9256"/>
<path d="M603.576 389.81C604.913 387.135 594.213 395.158 591.54 408.533" stroke="black" stroke-width="1.06955" stroke-miterlimit="22.9256"/>
<path d="M612.183 384.935C615.136 383.4 623.467 381.187 633.196 385.089" stroke="black" stroke-width="1.06955" stroke-miterlimit="22.9256"/>
<path d="M641.785 390.038C645.607 392.368 653.216 400.82 653.058 409.87" stroke="black" stroke-width="1.06955" stroke-miterlimit="22.9256"/>
<path d="M653.058 419.231C653.61 424.647 643.347 438.225 641.734 437.37C641.468 437.23 641.413 436.81 641.021 436.617" stroke="black" stroke-width="1.06955" stroke-miterlimit="22.9256"/>
<path d="M611.703 442.633C614 444.386 625.519 446.24 633.045 442.837" stroke="black" stroke-width="1.06955" stroke-miterlimit="22.9256"/>
<path d="M602.904 437.57C597.353 436.738 589.833 418.32 591.999 419.114" stroke="black" stroke-width="1.06955" stroke-miterlimit="22.9256"/>
<path d="M110.565 166.812L110.535 170.824L114.547 170.854L372.649 172.803L376.661 172.834L376.694 168.821L376.801 154.515L376.83 150.531L372.847 150.473L114.757 146.736L110.717 146.677L110.687 150.717L110.565 166.812Z" fill="#2C2E29" stroke="black" stroke-width="8.02467" stroke-miterlimit="22.9256"/>
<path d="M14.3621 361.734V447.324H49.1336V445.987V420.578V411.216L53.145 396.505L61.1696 383.131L70.5308 372.433L82.5677 364.408L101.29 360.397H117.338L136.062 364.408L149.435 372.433L160.134 381.794L169.496 393.831L174.845 407.204L177.52 423.253L180.195 451.337L554.655 454.012V440.638V425.928L558.668 409.879L566.692 391.156L580.066 377.783L592.102 368.42L603.705 363.584C606.639 362.362 609.787 361.734 612.964 361.734H625.536L642.922 367.083L660.307 377.783L675.018 393.831L684.38 407.204L687.054 423.253L688.392 436.626L687.054 455.349H691.067H733.862H744.56L749.91 451.337L756.597 445.987L755.26 433.951L752.585 427.264L748.573 425.928L752.585 412.553L759.272 396.505V384.469L752.585 383.131V371.095L756.597 368.42L748.573 356.384L725.838 345.686L721.826 316.263L715.139 305.565L679.031 294.866L584.077 284.166L495.812 179.853H489.125L46.4588 173.166H22.3858L5 167.817V173.166L37.0967 195.901L22.3858 284.166V356.384L14.3621 361.734Z" fill="#2C2E29" stroke="black" stroke-width="8.02467" stroke-miterlimit="22.9256"/>
<path d="M473.076 189.214C481.992 189.66 500.626 190.285 503.836 189.214L584.964 284.266L577.924 284.414L558.896 284.532H541.511L483.776 213.287L473.076 195.901V189.214Z" fill="#D9D9D9" stroke="black" stroke-width="8.02467" stroke-miterlimit="22.9256"/>
<path d="M420.288 191.779L308.582 189.214V282.829H330.115H366.454H414.907H462.012H519.884L513.155 273.852L498.35 253.335L479.507 227.687L464.702 211.015L444.516 196.909L420.288 191.779Z" fill="#D9D9D9" stroke="black" stroke-width="8.02467" stroke-miterlimit="22.9256"/>
<path d="M142.749 186.539H66.5194H63.8446L59.8322 202.588L57.1573 221.311L53.145 250.733V266.781V274.806L59.8322 280.155H138.736L142.749 186.539Z" fill="#D9D9D9" stroke="black" stroke-width="8.02467" stroke-miterlimit="22.9256"/>
<path d="M308.582 282.829L137.399 280.117L141.411 186.539L308.582 189.253V191.965V282.829Z" fill="#D9D9D9" stroke="black" stroke-width="8.02467" stroke-miterlimit="22.9256"/>
<path d="M690.716 333.649H721.826L715.901 311.096L673.681 298.877V333.649H690.716Z" fill="#D9D9D9" stroke="black" stroke-width="8.02467" stroke-miterlimit="22.9256"/>
<path d="M664.953 298.877L681.705 302.537V333.649H662.982V298.877H664.953Z" fill="#FAAE18" stroke="black" stroke-width="8.02467" stroke-miterlimit="22.9256"/>
<path d="M61.1698 355.047L56.1769 290.854H24.9719L23.7234 292.563V355.047H61.1698Z" fill="#D71414"/>
<path d="M23.7234 290.854H24.9719M24.9719 290.854H56.1769L61.1698 355.047H23.7234V292.563L24.9719 290.854Z" stroke="black" stroke-width="8.02467" stroke-miterlimit="22.9256"/>
<path d="M23.7234 355.047V333.649H58.5869L61.1698 355.047H59.8789H23.7234Z" fill="#D9D9D9" stroke="black" stroke-width="8.02467" stroke-miterlimit="22.9256"/>
<defs>
<filter id="filter0_d_233_107" x="132.115" y="0.288665" width="222.01" height="225.654" filterUnits="userSpaceOnUse" color-interpolation-filters="sRGB">
<feFlood flood-opacity="0" result="BackgroundImageFix"/>
<feColorMatrix in="SourceAlpha" type="matrix" values="0 0 0 0 0 0 0 0 0 0 0 0 0 0 0 0 0 0 127 0" result="hardAlpha"/>
<feOffset dx="18.723" dy="10.6989"/>
<feGaussianBlur stdDeviation="10.6989"/>
<feComposite in2="hardAlpha" operator="out"/>
<feColorMatrix type="matrix" values="0 0 0 0 0 0 0 0 0 0 0 0 0 0 0 0 0 0 0.75 0"/>
<feBlend mode="normal" in2="BackgroundImageFix" result="effect1_dropShadow_233_107"/>
<feBlend mode="normal" in="SourceGraphic" in2="effect1_dropShadow_233_107" result="shape"/>
</filter>
</defs>
</svg>
