<svg width="286" height="183" viewBox="0 0 286 183" fill="none" xmlns="http://www.w3.org/2000/svg">
<ellipse cx="144" cy="173.5" rx="140" ry="9.5" fill="black" fill-opacity="0.72"/>
<path d="M43.0005 173.134C52.9416 173.134 61.0005 165.075 61.0005 155.134C61.0005 145.192 52.9416 137.134 43.0005 137.134C33.0594 137.134 25.0005 145.192 25.0005 155.134C25.0005 165.075 33.0594 173.134 43.0005 173.134Z" stroke="black" stroke-width="6.4252" stroke-miterlimit="22.9256"/>
<path d="M55.0005 157.315V153.498L49.7829 152.952C47.6962 152.515 47.87 150.589 48.2177 149.679L50.8264 145.315L47.6958 143.134L44.5656 148.043C43.3134 149.352 41.957 148.589 41.435 148.043L38.8264 143.134L35.6958 145.315L37.7829 149.679C39.035 151.861 37.2613 152.77 36.2177 152.952H31.0005V157.09H35.6958C38.2005 157.09 38.131 159.498 37.7829 160.589L35.1742 164.952L38.3048 167.134L41.435 162.77C42.6872 160.589 44.3917 161.861 45.0872 162.77L47.3881 167.006L50.8264 164.952L48.2177 160.589C47.3829 158.407 48.9136 157.498 49.7829 157.315H55.0005Z" fill="#292929"/>
<path d="M47.1742 167.134L47.3881 167.006M47.3881 167.006L50.8264 164.952L48.2177 160.589C47.3829 158.407 48.9136 157.498 49.7829 157.315H55.0005V153.498C55.0005 153.498 53.957 153.389 49.7829 152.952C47.6962 152.515 47.87 150.589 48.2177 149.679L50.8264 145.315L47.6958 143.134L44.5656 148.043C43.3134 149.352 41.957 148.589 41.435 148.043L38.8264 143.134L35.6958 145.315L37.7829 149.679C39.035 151.861 37.2613 152.77 36.2177 152.952H31.0005V157.09C31.5221 157.09 32.5656 157.09 35.6958 157.09C38.2005 157.09 38.131 159.498 37.7829 160.589L35.1742 164.952L38.3048 167.134L41.435 162.77C42.6872 160.589 44.3917 161.861 45.0872 162.77L47.3881 167.006Z" stroke="black" stroke-width="0.399874" stroke-miterlimit="22.9256"/>
<path d="M48.0004 155.134C48.0004 152.372 45.7617 150.134 43.0004 150.134C40.2391 150.134 38.0005 152.372 38.0005 155.134C38.0005 157.895 40.2391 160.134 43.0004 160.134C45.7617 160.134 48.0004 157.895 48.0004 155.134Z" fill="#D9D9D9" fill-opacity="0.541176"/>
<path d="M42.9998 158.133C44.6566 158.133 45.9996 156.79 45.9996 155.134C45.9996 153.477 44.6566 152.134 42.9998 152.134C41.3431 152.134 40 153.477 40 155.134C40 156.79 41.3431 158.133 42.9998 158.133Z" fill="#555555"/>
<path d="M43.0004 168.484C50.3735 168.484 56.3505 162.507 56.3505 155.134C56.3505 147.761 50.3735 141.784 43.0004 141.784C35.6274 141.784 29.6504 147.761 29.6504 155.134C29.6504 162.507 35.6274 168.484 43.0004 168.484Z" stroke="#292929" stroke-width="3.29991" stroke-miterlimit="22.9256"/>
<path d="M36.0004 146.134C36.5004 145.134 32.5002 148.134 31.5005 153.134" stroke="black" stroke-width="0.399874" stroke-miterlimit="22.9256"/>
<path d="M39.2183 144.311C40.3223 143.737 43.437 142.91 47.0744 144.369" stroke="black" stroke-width="0.399874" stroke-miterlimit="22.9256"/>
<path d="M50.2856 146.219C51.7143 147.09 54.5591 150.251 54.5002 153.634" stroke="black" stroke-width="0.399874" stroke-miterlimit="22.9256"/>
<path d="M54.5003 157.134C54.7066 159.158 50.8697 164.235 50.2664 163.915C50.167 163.863 50.1466 163.706 50 163.634" stroke="black" stroke-width="0.399874" stroke-miterlimit="22.9256"/>
<path d="M39.0386 165.883C39.8977 166.538 44.2041 167.232 47.0179 165.959" stroke="black" stroke-width="0.399874" stroke-miterlimit="22.9256"/>
<path d="M35.7488 163.99C33.6735 163.679 30.8623 156.793 31.6719 157.09" stroke="black" stroke-width="0.399874" stroke-miterlimit="22.9256"/>
<path d="M64.0494 34.8782V70.3415L127.549 71.3416V53.8783V35.3782C122.749 33.7784 125.883 32.0451 128.049 31.3784C128.049 -3.15858 56.224 1.34132 63.5494 31.3784L66.5496 33.3781C68.5494 34.5781 65.7162 34.8782 64.0494 34.8782Z" fill="#D3A267" stroke="#B8711E" stroke-width="3.00019" stroke-miterlimit="22.9256"/>
<g filter="url(#filter0_d_302_403)">
<path d="M52.0249 34.8781V70.3414L115.525 71.3415V53.8782V35.3782C110.725 33.7783 113.858 32.045 116.026 31.3783C116.47 -3.25314 51.3287 -1.24319 52.0442 30.1171L55.1925 32.0427C57.1923 33.2427 53.6917 34.8781 52.0249 34.8781Z" fill="#D3A267"/>
<path d="M52.0249 34.8781V70.3414L115.525 71.3415V53.8782V35.3782C110.725 33.7783 113.858 32.045 116.026 31.3783C116.47 -3.25314 51.3287 -1.24319 52.0442 30.1171L55.1925 32.0427C57.1923 33.2427 53.6917 34.8781 52.0249 34.8781Z" stroke="#B8711E" stroke-width="3.00019" stroke-miterlimit="22.9256"/>
</g>
<path d="M232.79 173.13C242.731 173.13 250.79 165.072 250.79 155.13C250.79 145.189 242.731 137.13 232.79 137.13C222.849 137.13 214.79 145.189 214.79 155.13C214.79 165.072 222.849 173.13 232.79 173.13Z" stroke="black" stroke-width="6.4252" stroke-miterlimit="22.9256"/>
<path d="M244.79 157.312V153.495L239.572 152.948C237.486 152.512 237.66 150.586 238.007 149.675L240.616 145.312L237.485 143.13L234.355 148.04C233.103 149.348 231.746 148.585 231.225 148.04L228.616 143.13L225.485 145.312L227.572 149.675C228.825 151.857 227.051 152.767 226.007 152.948H220.79V157.087H225.485C227.99 157.087 227.92 159.495 227.572 160.585L224.964 164.948L228.094 167.13L231.225 162.767C232.477 160.585 234.181 161.858 234.877 162.767L237.178 167.003L240.616 164.948L238.007 160.585C237.172 158.403 238.703 157.494 239.572 157.312H244.79Z" fill="#292929"/>
<path d="M236.964 167.13L237.178 167.003M237.178 167.003L240.616 164.948L238.007 160.585C237.172 158.403 238.703 157.494 239.572 157.312H244.79V153.495C244.79 153.495 243.746 153.385 239.572 152.948C237.486 152.512 237.66 150.586 238.007 149.675L240.616 145.312L237.485 143.13L234.355 148.04C233.103 149.348 231.746 148.585 231.225 148.04L228.616 143.13L225.485 145.312L227.572 149.675C228.825 151.857 227.051 152.767 226.007 152.948H220.79V157.087C221.312 157.087 222.355 157.087 225.485 157.087C227.99 157.087 227.92 159.495 227.572 160.585L224.964 164.948L228.094 167.13L231.225 162.767C232.477 160.585 234.181 161.858 234.877 162.767L237.178 167.003Z" stroke="black" stroke-width="0.399874" stroke-miterlimit="22.9256"/>
<path d="M237.79 155.13C237.79 152.369 235.551 150.13 232.79 150.13C230.029 150.13 227.79 152.369 227.79 155.13C227.79 157.892 230.029 160.13 232.79 160.13C235.551 160.13 237.79 157.892 237.79 155.13Z" fill="#D9D9D9" fill-opacity="0.541176"/>
<path d="M232.79 158.13C234.447 158.13 235.79 156.787 235.79 155.13C235.79 153.473 234.447 152.13 232.79 152.13C231.133 152.13 229.79 153.473 229.79 155.13C229.79 156.787 231.133 158.13 232.79 158.13Z" fill="#555555"/>
<path d="M232.79 168.48C240.163 168.48 246.14 162.503 246.14 155.13C246.14 147.757 240.163 141.78 232.79 141.78C225.417 141.78 219.44 147.757 219.44 155.13C219.44 162.503 225.417 168.48 232.79 168.48Z" stroke="#292929" stroke-width="3.29991" stroke-miterlimit="22.9256"/>
<path d="M225.79 146.13C226.29 145.13 222.29 148.13 221.29 153.13" stroke="black" stroke-width="0.399874" stroke-miterlimit="22.9256"/>
<path d="M229.008 144.308C230.112 143.734 233.227 142.907 236.864 144.365" stroke="black" stroke-width="0.399874" stroke-miterlimit="22.9256"/>
<path d="M240.076 146.216C241.504 147.087 244.349 150.247 244.29 153.63" stroke="black" stroke-width="0.399874" stroke-miterlimit="22.9256"/>
<path d="M244.29 157.13C244.496 159.155 240.659 164.231 240.056 163.912C239.957 163.859 239.936 163.703 239.79 163.63" stroke="black" stroke-width="0.399874" stroke-miterlimit="22.9256"/>
<path d="M228.828 165.88C229.687 166.535 233.994 167.228 236.807 165.956" stroke="black" stroke-width="0.399874" stroke-miterlimit="22.9256"/>
<path d="M225.539 163.987C223.464 163.676 220.652 156.789 221.462 157.086" stroke="black" stroke-width="0.399874" stroke-miterlimit="22.9256"/>
<path d="M41.4679 62.7579L41.4565 64.258L42.9566 64.2693L139.453 64.998L140.953 65.0093L140.965 63.5093L141.006 58.1605L141.016 56.671L139.527 56.6494L43.0349 55.2521L41.5246 55.2302L41.5132 56.7405L41.4679 62.7579Z" fill="#2C2E29" stroke="black" stroke-width="3.00019" stroke-miterlimit="22.9256"/>
<path d="M5.50022 135.634V167.634H18.5003V167.134V157.634V154.133L20 148.633L23.0002 143.634L26.5 139.634L31.0003 136.633L38 135.134H44L51.0001 136.633L56 139.634L60.0002 143.134L63.5001 147.634L65.5002 152.634L66.5003 158.634L67.5004 169.134L207.5 170.134V165.134V159.634L209 153.634L212 146.634L217 141.634L221.5 138.134L225.838 136.325C226.935 135.868 228.112 135.634 229.3 135.634H234L240.5 137.634L247 141.634L252.5 147.634L256 152.634L257 158.634L257.5 163.634L257 170.634H258.5H274.5H278.5L280.5 169.134L283 167.134L282.5 162.634L281.5 160.133L280 159.634L281.5 154.633L284 148.633V144.134L281.5 143.634V139.134L283 138.134L280 133.634L271.5 129.634L270 118.633L267.5 114.634L254 110.634L218.5 106.633L185.5 67.6337H183L17.5002 65.1335H8.50003L2 63.1338V65.1335L14 73.6337L8.50003 106.633V133.634L5.50022 135.634Z" fill="#2C2E29" stroke="black" stroke-width="3.00019" stroke-miterlimit="22.9256"/>
<path d="M177 71.1335C180.333 71.3002 187.3 71.5338 188.5 71.1335L218.831 106.671L216.199 106.726L209.086 106.77H202.586L181 80.1338L177 73.6337V71.1335Z" fill="#D9D9D9" stroke="black" stroke-width="3.00019" stroke-miterlimit="22.9256"/>
<path d="M157.264 72.0924L115.5 71.1335V106.133H123.551H137.137H155.252H172.863H194.5L191.985 102.777L186.449 95.1063L179.404 85.5173L173.869 79.2845L166.322 74.0105L157.264 72.0924Z" fill="#D9D9D9" stroke="black" stroke-width="3.00019" stroke-miterlimit="22.9256"/>
<path d="M53.5002 70.1335H25.0003H24.0002L22.5002 76.1335L21.5001 83.1336L20 94.1335V100.134V103.134L22.5002 105.134H52.0001L53.5002 70.1335Z" fill="#D9D9D9" stroke="black" stroke-width="3.00019" stroke-miterlimit="22.9256"/>
<path d="M115.5 106.134L51.5 105.119L53.0001 70.1335L115.5 71.148V72.162V106.134Z" fill="#D9D9D9" stroke="black" stroke-width="3.00019" stroke-miterlimit="22.9256"/>
<path d="M258.369 125.134H270L267.785 116.702L252 112.134V125.134H258.369Z" fill="#D9D9D9" stroke="black" stroke-width="3.00019" stroke-miterlimit="22.9256"/>
<path d="M248.737 112.134L255 113.502V125.134H248V112.134H248.737Z" fill="#FAAE18" stroke="black" stroke-width="3.00019" stroke-miterlimit="22.9256"/>
<path d="M23.0001 133.134L21.1334 109.134H9.46678L9 109.773V133.134H23.0001Z" fill="#D71414"/>
<path d="M9 109.134H9.46678M9.46678 109.134H21.1334L23.0001 133.134H9V109.773L9.46678 109.134Z" stroke="black" stroke-width="3.00019" stroke-miterlimit="22.9256"/>
<path d="M9 133.134V125.134H22.0345L23.0001 133.134H22.5175H9Z" fill="#D9D9D9" stroke="black" stroke-width="3.00019" stroke-miterlimit="22.9256"/>
<defs>
<filter id="filter0_d_302_403" x="49.5249" y="0.5" width="83.0029" height="84.3655" filterUnits="userSpaceOnUse" color-interpolation-filters="sRGB">
<feFlood flood-opacity="0" result="BackgroundImageFix"/>
<feColorMatrix in="SourceAlpha" type="matrix" values="0 0 0 0 0 0 0 0 0 0 0 0 0 0 0 0 0 0 127 0" result="hardAlpha"/>
<feOffset dx="7" dy="4"/>
<feGaussianBlur stdDeviation="4"/>
<feComposite in2="hardAlpha" operator="out"/>
<feColorMatrix type="matrix" values="0 0 0 0 0 0 0 0 0 0 0 0 0 0 0 0 0 0 0.75 0"/>
<feBlend mode="normal" in2="BackgroundImageFix" result="effect1_dropShadow_302_403"/>
<feBlend mode="normal" in="SourceGraphic" in2="effect1_dropShadow_302_403" result="shape"/>
</filter>
</defs>
</svg>
