<svg width="272" height="113" viewBox="0 0 272 113" fill="none" xmlns="http://www.w3.org/2000/svg">
<ellipse cx="132.073" cy="103.499" rx="126.46" ry="8.5812" fill="black" fill-opacity="0.72"/>
<path d="M40.3896 103.951C51.6142 103.951 60.7135 94.8515 60.7135 83.6269C60.7135 72.4023 51.6142 63.3029 40.3896 63.3029C29.165 63.3029 20.0657 72.4023 20.0657 83.6269C20.0657 94.8515 29.165 103.951 40.3896 103.951Z" stroke="black" stroke-width="7.25473" stroke-miterlimit="22.9256"/>
<path d="M53.9389 86.0904V81.7799L48.0476 81.1632C45.6915 80.6708 45.8878 78.4952 46.2804 77.4676L49.2259 72.5412L45.6911 70.0776L42.1568 75.6206C40.743 77.0985 39.2114 76.2369 38.622 75.6206L35.6766 70.0776L32.1418 72.5412L34.4983 77.4676C35.9122 79.9312 33.9094 80.958 32.7312 81.1632H26.8403V85.8357H32.1418C34.9699 85.8357 34.8914 88.5546 34.4983 89.7862L31.5529 94.7125L35.0877 97.1762L38.622 92.2489C40.0358 89.7861 41.9605 91.2225 42.7457 92.2489L45.3437 97.0319L49.2259 94.7125L46.2804 89.7862C45.3378 87.3225 47.0661 86.2961 48.0476 86.0904H53.9389Z" fill="#292929"/>
<path d="M45.1022 97.1762L45.3437 97.0319M45.3437 97.0319L49.2259 94.7125L46.2804 89.7862C45.3378 87.3225 47.0661 86.2961 48.0476 86.0904H53.9389V81.7799C53.9389 81.7799 52.7606 81.6566 48.0476 81.1632C45.6915 80.6708 45.8878 78.4952 46.2804 77.4676L49.2259 72.5412L45.6911 70.0776L42.1568 75.6206C40.743 77.0985 39.2114 76.2369 38.622 75.6206L35.6766 70.0776L32.1418 72.5412L34.4983 77.4676C35.9122 79.9312 33.9094 80.958 32.7312 81.1632H26.8403V85.8357C27.4292 85.8357 28.6075 85.8357 32.1418 85.8357C34.9699 85.8357 34.8914 88.5546 34.4983 89.7862L31.5529 94.7125L35.0877 97.1762L38.622 92.2489C40.0358 89.7861 41.9605 91.2225 42.7457 92.2489L45.3437 97.0319Z" stroke="black" stroke-width="0.4515" stroke-miterlimit="22.9256"/>
<path d="M46.0351 83.6269C46.0351 80.509 43.5074 77.9814 40.3896 77.9814C37.2718 77.9814 34.7441 80.509 34.7441 83.6269C34.7441 86.7447 37.2718 89.2723 40.3896 89.2723C43.5074 89.2723 46.0351 86.7447 46.0351 83.6269Z" fill="#D9D9D9" fill-opacity="0.541176"/>
<path d="M40.3893 87.014C42.26 87.014 43.7764 85.4975 43.7764 83.6269C43.7764 81.7563 42.26 80.2397 40.3893 80.2397C38.5187 80.2397 37.0022 81.7563 37.0022 83.6269C37.0022 85.4975 38.5187 87.014 40.3893 87.014Z" fill="#555555"/>
<path d="M40.3898 98.7004C48.7147 98.7004 55.4634 91.9518 55.4634 83.6269C55.4634 75.3019 48.7147 68.5532 40.3898 68.5532C32.0648 68.5532 25.3162 75.3019 25.3162 83.6269C25.3162 91.9518 32.0648 98.7004 40.3898 98.7004Z" stroke="#292929" stroke-width="3.72594" stroke-miterlimit="22.9256"/>
<path d="M32.4857 73.4652C33.0502 72.336 28.5335 75.7231 27.4048 81.369" stroke="black" stroke-width="0.4515" stroke-miterlimit="22.9256"/>
<path d="M36.1191 71.4074C37.3657 70.7592 40.8825 69.825 44.9895 71.4723" stroke="black" stroke-width="0.4515" stroke-miterlimit="22.9256"/>
<path d="M48.6155 73.5616C50.2286 74.5452 53.4407 78.1133 53.3741 81.9336" stroke="black" stroke-width="0.4515" stroke-miterlimit="22.9256"/>
<path d="M53.3743 85.8853C53.6073 88.1714 49.2749 93.903 48.5938 93.5424C48.4816 93.4831 48.4585 93.306 48.293 93.2245" stroke="black" stroke-width="0.4515" stroke-miterlimit="22.9256"/>
<path d="M35.9163 95.7641C36.8863 96.5041 41.7486 97.2867 44.9258 95.8503" stroke="black" stroke-width="0.4515" stroke-miterlimit="22.9256"/>
<path d="M32.2021 93.6269C29.8588 93.2757 26.6846 85.5003 27.5987 85.8357" stroke="black" stroke-width="0.4515" stroke-miterlimit="22.9256"/>
<path d="M224.66 103.951C235.884 103.951 244.984 94.8515 244.984 83.6269C244.984 72.4023 235.884 63.3029 224.66 63.3029C213.435 63.3029 204.336 72.4023 204.336 83.6269C204.336 94.8515 213.435 103.951 224.66 103.951Z" stroke="black" stroke-width="7.25473" stroke-miterlimit="22.9256"/>
<path d="M238.209 86.0904V81.7799L232.318 81.1632C229.962 80.6708 230.158 78.4952 230.55 77.4676L233.496 72.5412L229.961 70.0776L226.427 75.6206C225.013 77.0985 223.481 76.2369 222.892 75.6206L219.947 70.0776L216.412 72.5412L218.768 77.4676C220.182 79.9312 218.179 80.958 217.001 81.1632H211.11V85.8357H216.412C219.24 85.8357 219.161 88.5546 218.768 89.7862L215.823 94.7125L219.358 97.1762L222.892 92.2489C224.306 89.7861 226.23 91.2225 227.016 92.2489L229.614 97.0319L233.496 94.7125L230.55 89.7862C229.608 87.3225 231.336 86.2961 232.318 86.0904H238.209Z" fill="#292929"/>
<path d="M229.372 97.1762L229.614 97.0319M229.614 97.0319L233.496 94.7125L230.55 89.7862C229.608 87.3225 231.336 86.2961 232.318 86.0904H238.209V81.7799C238.209 81.7799 237.031 81.6566 232.318 81.1632C229.962 80.6708 230.158 78.4952 230.55 77.4676L233.496 72.5412L229.961 70.0776L226.427 75.6206C225.013 77.0985 223.481 76.2369 222.892 75.6206L219.947 70.0776L216.412 72.5412L218.768 77.4676C220.182 79.9312 218.179 80.958 217.001 81.1632H211.11V85.8357C211.699 85.8357 212.878 85.8357 216.412 85.8357C219.24 85.8357 219.161 88.5546 218.768 89.7862L215.823 94.7125L219.358 97.1762L222.892 92.2489C224.306 89.7861 226.23 91.2225 227.016 92.2489L229.614 97.0319Z" stroke="black" stroke-width="0.4515" stroke-miterlimit="22.9256"/>
<path d="M230.305 83.6269C230.305 80.509 227.778 77.9814 224.66 77.9814C221.542 77.9814 219.014 80.509 219.014 83.6269C219.014 86.7447 221.542 89.2723 224.66 89.2723C227.778 89.2723 230.305 86.7447 230.305 83.6269Z" fill="#D9D9D9" fill-opacity="0.541176"/>
<path d="M224.659 87.014C226.53 87.014 228.046 85.4975 228.046 83.6269C228.046 81.7563 226.53 80.2397 224.659 80.2397C222.789 80.2397 221.272 81.7563 221.272 83.6269C221.272 85.4975 222.789 87.014 224.659 87.014Z" fill="#555555"/>
<path d="M224.66 98.7004C232.985 98.7004 239.733 91.9518 239.733 83.6269C239.733 75.3019 232.985 68.5532 224.66 68.5532C216.335 68.5532 209.586 75.3019 209.586 83.6269C209.586 91.9518 216.335 98.7004 224.66 98.7004Z" stroke="#292929" stroke-width="3.72594" stroke-miterlimit="22.9256"/>
<path d="M216.756 73.4652C217.32 72.336 212.804 75.7231 211.675 81.369" stroke="black" stroke-width="0.4515" stroke-miterlimit="22.9256"/>
<path d="M220.389 71.4074C221.636 70.7592 225.153 69.825 229.26 71.4723" stroke="black" stroke-width="0.4515" stroke-miterlimit="22.9256"/>
<path d="M232.885 73.5616C234.499 74.5452 237.711 78.1133 237.644 81.9336" stroke="black" stroke-width="0.4515" stroke-miterlimit="22.9256"/>
<path d="M237.645 85.8853C237.878 88.1714 233.545 93.903 232.864 93.5424C232.752 93.4831 232.729 93.306 232.563 93.2245" stroke="black" stroke-width="0.4515" stroke-miterlimit="22.9256"/>
<path d="M220.187 95.7641C221.157 96.5041 226.019 97.2867 229.196 95.8503" stroke="black" stroke-width="0.4515" stroke-miterlimit="22.9256"/>
<path d="M216.472 93.6269C214.129 93.2757 210.955 85.5003 211.869 85.8357" stroke="black" stroke-width="0.4515" stroke-miterlimit="22.9256"/>
<path d="M16.9042 75.9489C16.4526 76.25 15.5493 80.375 15.5493 94.4662H11.4845L7.41971 93.563L5.1615 92.208L2.90328 90.4015L2 87.6916V83.1752V80.4653L2.90328 79.5621V78.6588L2 74.594V61.4964L5.1615 57.4316V45.2372L6.06478 35.3011L7.41971 32.5913L10.1296 26.2683L20.969 6.84764L19.1624 5.49272L16.9042 3.68615V1.87958H21.8723H28.1953H65.2299L125.75 3.68615L155.558 4.13779C159.172 4.58943 165.495 5.49272 166.398 5.94436C166.721 6.10594 170.613 7.90148 171.818 8.65421L205.691 38.011L213.369 39.3659L243.629 44.7856L257.63 48.8504L259.888 51.1086L265.307 61.4964L268.921 66.0128V75.4973V90.8531C268.921 91.4553 269.101 93.021 269.824 94.4663C270.547 95.9115 266.211 98.0794 263.953 98.9827H249.5C251.307 87.6916 248.958 65.2902 225.111 66.0128C201.265 66.7354 197.411 88.2938 198.464 98.9827H155.558L67.0365 96.7245C68.1204 95.6405 67.4881 88.7455 67.0365 85.4334C65.2299 73.8714 55.1432 66.1633 50.3257 63.7546C43.8221 59.7801 35.271 61.1953 31.8084 62.3996C23.1369 65.2901 18.2591 72.6369 16.9042 75.9489Z" fill="#2C2E29" stroke="black" stroke-width="2.70985"/>
<path d="M249.5 49.302L258.985 50.2053L265.759 62.3997H262.146H256.275H252.662L250.855 61.4964L249.5 60.1414L244.532 53.3668L243.177 50.657L243.629 49.302H249.5Z" fill="#D9D9D9"/>
<path d="M54.3905 9.5575L46.261 31.2363L117.62 34.3978L114.911 8.20257H114.007L62.5201 7.29929H59.3586H57.1004L54.3905 9.5575Z" fill="#D9D9D9"/>
<path d="M249.5 49.302L258.985 50.2053L265.759 62.3997H262.146H256.275H252.662L250.855 61.4964L249.5 60.1414L244.532 53.3668L243.177 50.657L243.629 49.302H249.5Z" stroke="black" stroke-width="1.80657"/>
<path d="M54.3905 9.5575L46.261 31.2363L117.62 34.3978L114.911 8.20257H114.007L62.5201 7.29929H59.3586H57.1004L54.3905 9.5575Z" stroke="black" stroke-width="1.80657"/>
<path d="M164.14 9.5575L114.911 8.20258L117.62 34.3978L193.948 39.3659L192.141 36.656L184.464 27.6232L179.947 23.1068L167.753 11.3641L164.14 9.5575Z" fill="#D9D9D9" stroke="black" stroke-width="1.80657"/>
<path d="M10.5811 53.8184L5.16138 57.4316V56.9799L5.61302 43.4307V39.3659L6.5163 35.7527H10.5811V43.4307V53.8184Z" fill="#D71414" stroke="black" stroke-width="1.80657"/>
<path d="M10.5812 35.3011H6.96802L7.41966 32.1396H11.4844L10.5812 35.3011Z" fill="#D9D9D9" stroke="black" stroke-width="1.80657"/>
<path d="M14.646 22.6551C14.646 23.0165 12.5383 29.1287 11.4845 32.1396H7.87134L9.22626 28.5265L11.4845 23.1068L16.0009 15.4289L20.969 6.84766H23.6788L19.614 13.6223C17.958 16.4827 14.646 22.2938 14.646 22.6551Z" fill="#D9D9D9" stroke="black" stroke-width="1.80657"/>
<path d="M170.471 8.8789L171.869 8.70417C172.124 8.67235 172.38 8.75027 172.573 8.91847L205.037 37.1105C205.631 37.6267 205.327 38.6033 204.545 38.6903L198.9 39.3174C198.625 39.348 198.351 39.2508 198.157 39.0536L169.94 10.4091C169.415 9.87586 169.729 8.97175 170.471 8.8789Z" fill="#D9D9D9" stroke="black" stroke-width="1.80657"/>
</svg>
